<svg width="18" height="19" viewBox="0 0 18 19" fill="none" xmlns="http://www.w3.org/2000/svg">
<path fill-rule="evenodd" clip-rule="evenodd" d="M9 1.22314C4.65075 1.22314 1.125 4.41289 1.125 8.34814C1.125 10.2434 1.9485 11.9609 3.282 13.2381L2.631 16.4249C2.61714 16.4931 2.6225 16.5637 2.6465 16.629C2.6705 16.6943 2.71218 16.7516 2.76689 16.7946C2.82159 16.8375 2.88717 16.8644 2.95628 16.8723C3.0254 16.8801 3.09532 16.8685 3.15825 16.8389L6.7065 15.1641C7.4537 15.3694 8.22511 15.4734 9 15.4731C13.3492 15.4731 16.875 12.2834 16.875 8.34814C16.875 4.41289 13.3492 1.22314 9 1.22314Z" fill="#343434"/>
</svg>
