<svg width="24" height="24" viewBox="0 0 24 24" fill="none" xmlns="http://www.w3.org/2000/svg">
<g clip-path="url(#clip0_4369_18388)">
<path d="M9.38637 8.42132C9.38332 8.77845 9.36362 9.13612 9.33018 9.49367C8.70272 9.23556 8.2226 9.21656 7.99148 9.45117C7.45697 9.9777 8.23081 11.8046 10.1455 13.7112C12.0601 15.6339 13.879 16.4157 14.4135 15.8732C14.651 15.6394 14.6256 15.1394 14.3466 14.4847C14.7008 14.4509 15.0549 14.4308 15.4087 14.4271C15.8003 15.5532 15.7238 16.5483 14.7247 16.9661L3.88298 21.4975C2.70229 21.9921 1.60934 20.8672 2.13587 19.6945L6.90652 9.11612C7.34402 8.14843 8.3019 8.05781 9.38637 8.42132ZM14.9164 13.3392C14.5364 13.3577 14.1552 13.3921 13.7717 13.4447C13.4699 12.9882 13.0796 12.4959 12.6053 11.9922L13.3883 11.2078C13.9509 11.8327 14.5018 12.584 14.9164 13.3392ZM12.5982 10.4235L11.8133 11.2067C11.3075 10.7359 10.8148 10.35 10.3596 10.054C10.4136 9.66899 10.449 9.28577 10.4682 8.9035C11.2181 9.31092 11.9672 9.85967 12.5982 10.4235Z" fill="white"/>
<path d="M9.16465 3.74711C9.64332 3.74711 10.0422 3.35621 10.0422 2.86956C10.0422 2.39091 9.64332 2 9.16465 2C8.67004 2 8.28711 2.39091 8.28711 2.86956C8.28711 3.35621 8.67004 3.74711 9.16465 3.74711ZM10.2177 5.23893C10.1619 4.94376 9.9704 4.69645 9.65927 4.69645C9.3641 4.70443 9.06095 4.95174 9.12476 5.27085C9.48376 7.1456 9.48376 9.07619 9.12476 10.9829C9.05297 11.294 9.36409 11.5333 9.65129 11.5413C9.95445 11.5413 10.1539 11.3019 10.2097 11.0068C10.5847 9.06024 10.5847 7.16155 10.2177 5.23893ZM14.0949 5.12724C14.9325 5.12724 15.5946 4.45712 15.5946 3.62745C15.5946 2.78181 14.9325 2.12764 14.0949 2.12764C13.2572 2.12764 12.5951 2.78181 12.5951 3.62745C12.5951 4.45712 13.2572 5.12724 14.0949 5.12724ZM12.5791 7.64022C12.97 7.64022 13.2811 7.3211 13.2811 6.9302C13.2811 6.54727 12.97 6.22816 12.5791 6.22816C12.1962 6.22816 11.8691 6.54727 11.8691 6.9302C11.8691 7.3211 12.1962 7.64022 12.5791 7.64022ZM20.6046 4.20183C20.9876 4.20183 21.2987 3.89071 21.2987 3.4998C21.2987 3.10889 20.9876 2.78979 20.6046 2.78979C20.2137 2.78979 19.9026 3.10889 19.9026 3.4998C19.9026 3.89071 20.2137 4.20183 20.6046 4.20183ZM18.2991 4.72039L16.8073 6.21221C16.5918 6.42761 16.5998 6.77862 16.8073 6.99402C17.0306 7.20942 17.3816 7.2174 17.597 6.99402L19.0889 5.51018C19.3042 5.29477 19.2963 4.93578 19.0889 4.72039C18.8735 4.51296 18.5145 4.50499 18.2991 4.72039ZM15.3393 7.68808L11.2708 11.7487C11.0554 11.9561 11.0634 12.3231 11.2708 12.5385C11.4861 12.7459 11.8532 12.7539 12.0606 12.5385L16.1212 8.46989C16.3206 8.26247 16.3286 7.90347 16.1212 7.68808C15.9138 7.47268 15.5468 7.48864 15.3393 7.68808ZM21.3306 11.3578C21.8172 11.3578 22.2081 10.9669 22.2081 10.4723C22.2081 9.99363 21.8172 9.60272 21.3306 9.60272C20.8359 9.60272 20.4531 9.99363 20.4531 10.4723C20.4531 10.9669 20.8359 11.3578 21.3306 11.3578ZM17.9002 11.6849C18.6102 11.6849 19.1766 11.1344 19.1766 10.4244C19.1766 9.72238 18.6102 9.15597 17.9002 9.15597C17.1981 9.15597 16.6477 9.72238 16.6477 10.4244C16.6477 11.1344 17.1981 11.6849 17.9002 11.6849ZM21.0274 15.4424C21.5141 15.4424 21.905 15.0594 21.905 14.5649C21.905 14.0782 21.5141 13.6873 21.0274 13.6873C20.5408 13.6873 20.1499 14.0782 20.1499 14.5649C20.1499 15.0594 20.5408 15.4424 21.0274 15.4424ZM18.5943 13.5916C16.6636 13.2246 14.773 13.2246 12.8184 13.5916C12.5312 13.6554 12.2839 13.8548 12.2919 14.15C12.2919 14.4452 12.5312 14.7563 12.8504 14.6925C14.757 14.3335 16.6797 14.3255 18.5623 14.6845C18.8655 14.7483 19.1208 14.4531 19.1288 14.15C19.1368 13.8389 18.8815 13.6474 18.5943 13.5916Z" fill="white"/>
</g>
<defs>
<clipPath id="clip0_4369_18388">
<rect width="20.5031" height="20" fill="white" transform="translate(2 2)"/>
</clipPath>
</defs>
</svg>
