<svg width="24" height="24" viewBox="0 0 24 24" fill="none" xmlns="http://www.w3.org/2000/svg">
<path fill-rule="evenodd" clip-rule="evenodd" d="M6.20469 2.37752C4.08052 2.38014 2.36066 4.10425 2.36328 6.22842L2.37753 17.7669C2.38015 19.891 4.10425 21.6109 6.22842 21.6083L17.7669 21.594C19.891 21.5914 21.6109 19.8673 21.6083 17.7431L21.594 6.20469C21.5914 4.08052 19.8673 2.36066 17.7431 2.36328L6.20469 2.37752ZM17.3969 9.51441C17.816 9.09426 17.8152 8.41389 17.395 7.99477C16.9748 7.57566 16.2945 7.5765 15.8754 7.99665L10.1949 13.6911L7.19014 10.6937C6.76999 10.2746 6.08963 10.2755 5.67051 10.6956C5.25139 11.1158 5.25223 11.7961 5.67238 12.2152L9.43793 15.9715C9.85809 16.3906 10.5384 16.3898 10.9576 15.9696L17.3969 9.51441Z" fill="#EC4261"/>
</svg>
