<svg width="25" height="25" viewBox="0 0 25 25" fill="none" xmlns="http://www.w3.org/2000/svg">
<path fill-rule="evenodd" clip-rule="evenodd" d="M18.1937 10.7218L12.6038 16.2989C12.4155 16.4855 12.161 16.59 11.8959 16.5897C11.6308 16.5894 11.3766 16.4842 11.1888 16.2972L7.77699 12.877C7.68427 12.784 7.61075 12.6737 7.56066 12.5523C7.51056 12.4309 7.48486 12.3009 7.48502 12.1696C7.48535 11.9044 7.591 11.6502 7.77874 11.463C7.96648 11.2757 8.22092 11.1707 8.4861 11.171C8.75128 11.1713 9.00546 11.277 9.19274 11.4647L11.8984 14.177L16.7814 9.30607C16.8744 9.21334 16.9847 9.13982 17.106 9.08973C17.2274 9.03963 17.3575 9.01393 17.4888 9.01409C17.6201 9.01425 17.7501 9.04027 17.8713 9.09067C17.9925 9.14107 18.1027 9.21485 18.1954 9.30781C18.2881 9.40077 18.3616 9.51108 18.4117 9.63245C18.4618 9.75382 18.4875 9.88387 18.4874 10.0152C18.4872 10.1465 18.4612 10.2765 18.4108 10.3977C18.3604 10.5189 18.2866 10.6291 18.1937 10.7218M12.998 1.50039C6.92304 1.49289 1.99197 6.41181 1.98447 12.4868C1.97697 18.5618 6.89589 23.4929 12.9709 23.5004C19.0459 23.5079 23.977 18.589 23.9845 12.514C23.992 6.43896 19.073 1.50789 12.998 1.50039Z" fill="#5DB363"/>
</svg>
