<svg width="21" height="20" viewBox="0 0 21 20" fill="none" xmlns="http://www.w3.org/2000/svg">
<path fill-rule="evenodd" clip-rule="evenodd" d="M1.95478 8.20403C1.44981 8.20403 0.965519 8.40463 0.60845 8.7617C0.251381 9.11877 0.0507813 9.60306 0.0507812 10.108V18.095C0.0507812 19.147 0.902781 20 1.95478 20H3.88478V8.20403H1.95478ZM17.4138 5.99703H12.8718V1.73603C12.872 1.35369 12.746 0.981974 12.5133 0.678582C12.2807 0.375191 11.9543 0.157097 11.585 0.0581567C11.2157 -0.0407832 10.8241 -0.0150343 10.4709 0.131406C10.1177 0.277847 9.82273 0.536787 9.63178 0.86803L5.39578 8.20403H5.38478V20H14.6188C15.4702 20 16.297 19.7148 16.9673 19.1899C17.6376 18.665 18.1127 17.9306 18.3168 17.104L20.1868 9.54003C20.2909 9.11918 20.2978 8.68016 20.2071 8.25622C20.1164 7.83228 19.9304 7.43455 19.6632 7.09315C19.396 6.75175 19.0546 6.47564 18.6649 6.28573C18.2752 6.09582 17.8473 5.99709 17.4138 5.99703Z" fill="white"/>
</svg>
