<svg width="25" height="25" viewBox="0 0 25 25" fill="none" xmlns="http://www.w3.org/2000/svg">
<path fill-rule="evenodd" clip-rule="evenodd" d="M14.4442 12.3336L20.1022 6.68958C20.2138 6.5783 20.3024 6.44611 20.363 6.30057C20.4235 6.15504 20.4548 5.999 20.455 5.84137C20.4553 5.68375 20.4245 5.52761 20.3644 5.38189C20.3043 5.23617 20.2161 5.10372 20.1048 4.99209C19.9935 4.88046 19.8613 4.79184 19.7158 4.7313C19.5702 4.67075 19.4142 4.63947 19.2566 4.63923C19.0989 4.63898 18.9428 4.66979 18.7971 4.72989C18.6514 4.78999 18.5189 4.8782 18.4073 4.98949L12.7493 10.6345L7.10429 4.97554C6.87691 4.76264 6.57571 4.64641 6.26425 4.65138C5.95279 4.65635 5.65545 4.78214 5.43498 5.00219C5.21451 5.22225 5.08817 5.51935 5.08261 5.8308C5.07705 6.14224 5.19272 6.44367 5.4052 6.67145L11.0502 12.3294L5.39125 17.9734C5.224 18.1414 5.11016 18.3551 5.06404 18.5876C5.01792 18.8202 5.04158 19.0611 5.13205 19.2802C5.22252 19.4993 5.37576 19.6868 5.57249 19.8191C5.76923 19.9513 6.00067 20.0224 6.23772 20.0235C6.54472 20.0239 6.85186 19.9072 7.08615 19.6735L12.7451 14.0285L18.3891 19.6875C18.5003 19.7993 18.6324 19.888 18.778 19.9487C18.9235 20.0093 19.0796 20.0406 19.2372 20.0408C19.3949 20.041 19.551 20.0101 19.6967 19.9498C19.8424 19.8895 19.9747 19.8011 20.0861 19.6896C20.1979 19.5783 20.2865 19.446 20.3471 19.3004C20.4077 19.1548 20.4389 18.9987 20.4391 18.841C20.4393 18.6833 20.4084 18.5271 20.3482 18.3814C20.288 18.2356 20.1997 18.1032 20.0882 17.9916L14.4442 12.3336Z" fill="white"/>
</svg>
