<svg width="22" height="23" viewBox="0 0 22 23" fill="none" xmlns="http://www.w3.org/2000/svg">
<path fill-rule="evenodd" clip-rule="evenodd" d="M11 0.921875C17.065 0.921875 22 5.40688 22 10.9219C22 16.4359 17.065 20.9219 11 20.9219C9.795 20.9219 8.491 20.8009 8.047 20.7559L4.479 22.6739C4.3674 22.7338 4.24162 22.7623 4.11508 22.7564C3.98855 22.7505 3.86599 22.7103 3.76048 22.6402C3.65497 22.5701 3.57046 22.4727 3.51596 22.3583C3.46146 22.244 3.43901 22.117 3.451 21.9909L3.778 18.5679C0.999 16.4939 0 13.2799 0 10.9219C0 5.40688 4.935 0.921875 11 0.921875ZM11.072 13.9719C10.7541 13.9721 10.4493 14.0985 10.2245 14.3233C9.99967 14.5481 9.87327 14.853 9.873 15.1709C9.8726 15.4083 9.94267 15.6406 10.0743 15.8382C10.206 16.0358 10.3933 16.1899 10.6126 16.2811C10.8319 16.3722 11.0733 16.3961 11.3062 16.35C11.5392 16.3038 11.7532 16.1896 11.9212 16.0218C12.0892 15.8539 12.2036 15.64 12.2499 15.4071C12.2963 15.1742 12.2725 14.9328 12.1816 14.7134C12.0906 14.4941 11.9367 14.3066 11.7392 14.1748C11.5417 14.0429 11.3095 13.9727 11.072 13.9729V13.9719ZM11.057 5.49988C10.1996 5.50093 9.37765 5.842 8.77139 6.44826C8.16512 7.05452 7.82406 7.87649 7.823 8.73388C7.83537 8.93407 7.92362 9.12201 8.06976 9.2594C8.21589 9.39679 8.40892 9.47328 8.6095 9.47328C8.81008 9.47328 9.00311 9.39679 9.14925 9.2594C9.29538 9.12201 9.38363 8.93407 9.396 8.73388C9.396 7.81788 10.141 7.07288 11.057 7.07288C11.621 7.07288 12.193 7.33288 12.514 7.73488C12.759 8.04288 12.835 8.40988 12.738 8.82588C12.629 9.30587 12.348 9.50488 11.814 9.84587C11.164 10.2629 10.271 10.8339 10.271 12.2809C10.2783 12.4846 10.3643 12.6776 10.511 12.8191C10.6577 12.9607 10.8536 13.0398 11.0575 13.0398C11.2614 13.0398 11.4573 12.9607 11.604 12.8191C11.7507 12.6776 11.8367 12.4846 11.844 12.2809C11.844 11.7159 12.081 11.5419 12.664 11.1699C13.234 10.8049 14.014 10.3059 14.271 9.17788C14.474 8.29788 14.287 7.43788 13.743 6.75388C13.127 5.98088 12.098 5.49988 11.057 5.49988Z" fill="white"/>
</svg>
