<svg width="24" height="24" viewBox="0 0 24 24" fill="none" xmlns="http://www.w3.org/2000/svg">
<g clip-path="url(#clip0_4533_17956)">
<path fill-rule="evenodd" clip-rule="evenodd" d="M2.66667 24H21.3333C22.8061 24 24 22.8061 24 21.3333V2.66667C24 1.19391 22.8061 0 21.3333 0H2.66667C1.19391 0 0 1.19391 0 2.66667V21.3333C0 22.8061 1.19391 24 2.66667 24Z" fill="#595959"/>
<path fill-rule="evenodd" clip-rule="evenodd" d="M20.6673 20.6668H17.1059V14.6009C17.1059 12.9377 16.4739 12.0083 15.1576 12.0083C13.7255 12.0083 12.9773 12.9755 12.9773 14.6009V20.6668H9.5451V9.11127H12.9773V10.6678C12.9773 10.6678 14.0093 8.75823 16.4615 8.75823C18.9125 8.75823 20.6673 10.255 20.6673 13.3506V20.6668ZM5.45043 7.59817C4.28134 7.59817 3.33398 6.64338 3.33398 5.46583C3.33398 4.28828 4.28134 3.3335 5.45043 3.3335C6.61953 3.3335 7.56632 4.28828 7.56632 5.46583C7.56632 6.64338 6.61953 7.59817 5.45043 7.59817ZM3.67817 20.6668H7.25712V9.11127H3.67817V20.6668Z" fill="white"/>
</g>
<defs>
<clipPath id="clip0_4533_17956">
<rect width="24" height="24" fill="white"/>
</clipPath>
</defs>
</svg>
