<svg width="20" height="20" viewBox="0 0 20 20" fill="none" xmlns="http://www.w3.org/2000/svg">
<path d="M9.99935 13.4793C9.88824 13.4793 9.78046 13.4585 9.67602 13.4168C9.57157 13.3752 9.4849 13.3196 9.41602 13.2502L5.58268 9.41683C5.4299 9.26405 5.35352 9.06961 5.35352 8.8335C5.35352 8.59738 5.4299 8.40294 5.58268 8.25016C5.73546 8.09738 5.9299 8.021 6.16602 8.021C6.40213 8.021 6.59657 8.09738 6.74935 8.25016L9.99935 11.5002L13.2493 8.25016C13.4021 8.09738 13.5966 8.021 13.8327 8.021C14.0688 8.021 14.2632 8.09738 14.416 8.25016C14.5688 8.40294 14.6452 8.59738 14.6452 8.8335C14.6452 9.06961 14.5688 9.26405 14.416 9.41683L10.5827 13.2502C10.4993 13.3335 10.4091 13.3927 10.3118 13.4277C10.2146 13.4627 10.1105 13.4799 9.99935 13.4793Z" fill="#C8C8C8"/>
</svg>
