<svg width="20" height="20" viewBox="0 0 20 20" fill="none" xmlns="http://www.w3.org/2000/svg">
<path d="M10.0007 6.52091C10.1118 6.52091 10.2195 6.54175 10.324 6.58342C10.4284 6.62508 10.5151 6.68064 10.584 6.75008L14.4173 10.5834C14.5701 10.7362 14.6465 10.9306 14.6465 11.1667C14.6465 11.4029 14.5701 11.5973 14.4173 11.7501C14.2645 11.9029 14.0701 11.9792 13.834 11.9792C13.5979 11.9792 13.4034 11.9029 13.2507 11.7501L10.0007 8.50008L6.75065 11.7501C6.59787 11.9029 6.40343 11.9792 6.16732 11.9792C5.93121 11.9792 5.73676 11.9029 5.58399 11.7501C5.43121 11.5973 5.35482 11.4029 5.35482 11.1667C5.35482 10.9306 5.43121 10.7362 5.58399 10.5834L9.41732 6.75008C9.50065 6.66675 9.59093 6.60758 9.68815 6.57258C9.78537 6.53758 9.88954 6.52036 10.0007 6.52091Z" fill="#C8C8C8"/>
</svg>
