<svg width="24" height="24" viewBox="0 0 24 24" fill="none" xmlns="http://www.w3.org/2000/svg">
<path fill-rule="evenodd" clip-rule="evenodd" d="M20.2739 10L21.7579 8.51505C21.8445 8.4322 21.9136 8.3329 21.9613 8.22297C22.0089 8.11305 22.0342 7.99472 22.0355 7.87491C22.0368 7.75511 22.0142 7.63624 21.969 7.52529C21.9238 7.41434 21.8569 7.31353 21.7722 7.22877C21.6875 7.14402 21.5868 7.07703 21.4758 7.03173C21.3649 6.98643 21.2461 6.96373 21.1263 6.96497C21.0065 6.9662 20.8881 6.99135 20.7782 7.03893C20.6682 7.08651 20.5688 7.15556 20.4859 7.24205L19.0009 8.72705L17.5159 7.24205C17.3448 7.08517 17.1197 7.00043 16.8875 7.00548C16.6554 7.01053 16.4342 7.10499 16.27 7.26916C16.1059 7.43333 16.0114 7.65454 16.0064 7.88666C16.0013 8.11878 16.086 8.34389 16.2429 8.51505L17.7279 10L16.2429 11.485C16.1593 11.5686 16.093 11.6679 16.0478 11.7771C16.0026 11.8863 15.9793 12.0033 15.9793 12.1215C15.9793 12.2398 16.0026 12.3568 16.0478 12.466C16.093 12.5752 16.1593 12.6745 16.2429 12.758C16.3265 12.8416 16.4257 12.9079 16.535 12.9532C16.6442 12.9984 16.7612 13.0217 16.8794 13.0217C16.9976 13.0217 17.1147 12.9984 17.2239 12.9532C17.3331 12.9079 17.4323 12.8416 17.5159 12.758L19.0009 11.273L20.4859 12.758C20.6559 12.9208 20.8829 13.0105 21.1183 13.0079C21.3536 13.0052 21.5786 12.9106 21.7449 12.7441C21.9113 12.5776 22.0058 12.3525 22.0082 12.1172C22.0107 11.8819 21.9208 11.6549 21.7579 11.485L20.2739 10ZM10.0009 11.456C11.1557 11.456 12.2631 10.9973 13.0797 10.1808C13.8962 9.36426 14.3549 8.2568 14.3549 7.10205C14.3549 5.94729 13.8962 4.83984 13.0797 4.0233C12.2631 3.20677 11.1557 2.74805 10.0009 2.74805C8.84617 2.74805 7.73871 3.20677 6.92218 4.0233C6.10565 4.83984 5.64692 5.94729 5.64692 7.10205C5.64692 8.2568 6.10565 9.36426 6.92218 10.1808C7.73871 10.9973 8.84617 11.456 10.0009 11.456M10.0009 12.788C3.73192 12.788 1.29492 16.777 1.29492 18.633C1.29492 20.488 6.48392 20.982 10.0009 20.982C13.5179 20.982 18.7069 20.488 18.7069 18.632C18.7069 16.777 16.2699 12.788 10.0009 12.788" fill="#6F6F6F"/>
</svg>
