<svg width="22" height="22" viewBox="0 0 22 22" fill="none" xmlns="http://www.w3.org/2000/svg">
<path fill-rule="evenodd" clip-rule="evenodd" d="M14.604 9.245C14.317 10.494 13.457 11.044 12.828 11.447C12.177 11.863 11.952 12.037 11.952 12.626C11.952 12.8647 11.8572 13.0936 11.6884 13.2624C11.5196 13.4312 11.2907 13.526 11.052 13.526C10.8133 13.526 10.5844 13.4312 10.4156 13.2624C10.2468 13.0936 10.152 12.8647 10.152 12.626C10.152 11.021 11.138 10.391 11.858 9.93C12.43 9.565 12.733 9.35 12.85 8.842C12.951 8.401 12.871 8.011 12.61 7.683C12.268 7.254 11.657 6.976 11.052 6.976C10.074 6.976 9.278 7.773 9.278 8.751C9.278 8.9897 9.18318 9.21861 9.0144 9.3874C8.84561 9.55618 8.6167 9.651 8.378 9.651C8.13931 9.651 7.91039 9.55618 7.7416 9.3874C7.57282 9.21861 7.478 8.9897 7.478 8.751C7.47906 7.80344 7.85594 6.895 8.52597 6.22497C9.196 5.55494 10.1044 5.17806 11.052 5.177C12.201 5.177 13.337 5.707 14.018 6.562C14.62 7.318 14.828 8.271 14.604 9.245ZM11.068 16.984C10.7497 16.984 10.4445 16.8576 10.2195 16.6325C9.99443 16.4075 9.868 16.1023 9.868 15.784C9.868 15.4657 9.99443 15.1605 10.2195 14.9355C10.4445 14.7104 10.7497 14.584 11.068 14.584C11.3863 14.584 11.6915 14.7104 11.9165 14.9355C12.1416 15.1605 12.268 15.4657 12.268 15.784C12.268 16.1023 12.1416 16.4075 11.9165 16.6325C11.6915 16.8576 11.3863 16.984 11.068 16.984ZM11 0C4.924 0 0 4.925 0 11C0 17.076 4.924 22 11 22C17.075 22 22 17.076 22 11C22 4.925 17.075 0 11 0Z" fill="white"/>
</svg>
