<svg width="25" height="25" viewBox="0 0 25 25" fill="none" xmlns="http://www.w3.org/2000/svg">
<path d="M4.44316 18.2084L19.5145 18.227C20.4083 18.2281 20.9509 17.7724 20.9517 17.0782C20.9529 16.1274 19.984 15.2704 19.1674 14.4231C18.5406 13.7662 18.3711 12.4157 18.2964 11.3222C18.2343 7.67074 17.2675 5.15924 14.7393 4.24328C14.3795 2.99719 13.4014 2.01659 11.9941 2.01485C10.5963 2.01312 9.60617 2.9913 9.25282 4.23651C6.72235 5.14623 5.74938 7.65533 5.67831 11.3066C5.60089 12.4 5.42807 13.75 4.79968 14.4054C3.97138 15.2506 3.00994 16.1052 3.00877 17.0561C3.00791 17.7502 3.53984 18.2073 4.44316 18.2084ZM11.9694 22.0307C13.5858 22.0327 14.7664 20.8551 14.8916 19.524L9.06278 19.5168C9.18476 20.8482 10.3624 22.0287 11.9694 22.0307Z" fill="#C8C8C8"/>
</svg>
