<svg width="25" height="25" viewBox="0 0 25 25" fill="none" xmlns="http://www.w3.org/2000/svg">
<path fill-rule="evenodd" clip-rule="evenodd" d="M15.9956 20.4355C15.8183 20.4354 15.6428 20.4002 15.4792 20.3321C15.3155 20.2639 15.167 20.1641 15.042 20.0383L8.30038 13.28C8.17513 13.1545 8.07583 13.0055 8.00816 12.8416C7.94049 12.6777 7.90578 12.5021 7.90599 12.3248C7.90621 12.1475 7.94136 11.9719 8.00944 11.8082C8.07751 11.6445 8.17717 11.4957 8.30273 11.3705L15.0611 4.62886C15.1856 4.49928 15.3348 4.39588 15.4998 4.32472C15.6648 4.25355 15.8424 4.21605 16.0221 4.21442C16.2018 4.21279 16.38 4.24705 16.5463 4.31521C16.7126 4.38337 16.8636 4.48404 16.9905 4.61133C17.1174 4.73861 17.2176 4.88995 17.2852 5.05647C17.3528 5.22298 17.3865 5.40132 17.3843 5.58102C17.382 5.76073 17.344 5.93818 17.2723 6.10298C17.2006 6.26777 17.0967 6.41659 16.9667 6.54071L11.1651 12.3296L16.9524 18.1312C17.1412 18.3202 17.2698 18.5609 17.3217 18.8229C17.3737 19.085 17.3468 19.3565 17.2443 19.6032C17.1419 19.85 16.9685 20.0607 16.7462 20.2089C16.5239 20.357 16.2627 20.4359 15.9956 20.4355Z" fill="white"/>
</svg>
