<svg width="24" height="24" viewBox="0 0 24 24" fill="none" xmlns="http://www.w3.org/2000/svg">
<path d="M21.8498 20.1509L17.2428 15.544C18.3278 14.106 18.9788 12.3239 18.9788 10.3879C18.9788 5.65195 15.1248 1.79895 10.3898 1.79895C5.65378 1.79995 1.80078 5.65295 1.80078 10.389C1.80078 15.124 5.65378 18.978 10.3898 18.978C12.3248 18.978 14.1078 18.327 15.5458 17.242L20.1528 21.849C20.3868 22.083 20.6938 22.2 21.0008 22.2C21.3078 22.2 21.6148 22.083 21.8498 21.8479C22.3178 21.3799 22.3178 20.6199 21.8498 20.1509ZM4.20078 10.389C4.20078 6.97595 6.97678 4.19995 10.3898 4.19995C13.8018 4.19995 16.5778 6.97595 16.5778 10.3879C16.5778 13.7999 13.8018 16.576 10.3898 16.576C6.97678 16.577 4.20078 13.801 4.20078 10.389Z" fill="#C8C8C8"/>
</svg>
