<svg width="22" height="22" viewBox="0 0 22 22" fill="none" xmlns="http://www.w3.org/2000/svg">
<path fill-rule="evenodd" clip-rule="evenodd" d="M11.3349 4.45378L2.27288 13.5158L1.03688 18.1258L0.223885 21.1628C0.201303 21.2476 0.201416 21.3369 0.224212 21.4217C0.247008 21.5065 0.291686 21.5838 0.353771 21.6459C0.415855 21.708 0.493166 21.7527 0.577956 21.7754C0.662746 21.7982 0.752038 21.7984 0.836885 21.7758L3.87189 20.9618L8.48288 19.7258H8.48388L17.5459 10.6638L11.3359 4.45378H11.3349ZM21.2929 5.50378L16.4969 0.706775C16.4041 0.61383 16.2939 0.540092 16.1726 0.489781C16.0513 0.43947 15.9212 0.413574 15.7899 0.413574C15.6586 0.413574 15.5285 0.43947 15.4072 0.489781C15.2859 0.540092 15.1757 0.61383 15.0829 0.706775L12.6079 3.18078L18.8189 9.39178L21.2929 6.91678C21.3858 6.82399 21.4596 6.71378 21.5099 6.59247C21.5602 6.47115 21.5861 6.34111 21.5861 6.20978C21.5861 6.07844 21.5602 5.9484 21.5099 5.82708C21.4596 5.70577 21.3858 5.59556 21.2929 5.50278" fill="white"/>
</svg>
