<svg width="169" height="55" viewBox="0 0 169 55" fill="none" xmlns="http://www.w3.org/2000/svg">
<g filter="url(#filter0_bd_2518_16395)">
<rect x="4" width="161" height="47" rx="23.5" fill="#F2F2F2" fill-opacity="0.05" shape-rendering="crispEdges"/>
<rect x="4.165" y="0.165" width="160.67" height="46.67" rx="23.335" stroke="white" stroke-opacity="0.5" stroke-width="0.33" shape-rendering="crispEdges"/>
<path d="M58.9473 15.9697V30.9775H57.1875V15.9697H58.9473ZM55.7598 16.335V30.2637H54.0166V23.3574H51.3438C50.4639 25.084 49.0527 26.5781 46.9277 27.8066L45.8818 26.4951C48.9946 24.6606 50.4141 22.3115 50.6963 19.29H46.6455V17.7959H52.5225C52.5225 19.2485 52.3481 20.6099 51.9414 21.8799H54.0166V16.335H55.7598ZM66.3682 19.5723C66.3516 22.3281 67.7959 25.084 70.2363 26.1299L69.1406 27.6074C67.4141 26.8105 66.144 25.2168 65.4551 23.2578C64.7661 25.3745 63.4795 27.1011 61.6533 27.9561L60.5244 26.4121C63.0312 25.333 64.4922 22.4609 64.4922 19.5723V17.1816H66.3682V19.5723ZM73.1748 15.9697V30.9941H71.3154V15.9697H73.1748ZM87.4189 16.6006V17.5967C87.4189 18.5845 87.4189 19.813 87.1201 21.3818H89.0957V22.8428H75.3828V21.3818H85.2607C85.5264 20.0205 85.5679 18.9497 85.5762 18.0615H77.0762V16.6006H87.4189ZM87.4023 24.0381V28.1055H78.8193V29.3838H87.7842V30.8281H76.9766V26.6943H85.5596V25.4824H76.96V24.0381H87.4023ZM99.4883 18.5762C99.4883 20.4189 100.684 22.2451 103.041 23.0254L102.111 24.4531C100.435 23.897 99.2393 22.7681 98.5918 21.3652C97.9194 22.9009 96.6743 24.1211 94.9229 24.7188L93.9434 23.291C96.3672 22.4941 97.6289 20.5518 97.6289 18.5762V18.3936H94.458V16.916H102.609V18.3936H99.4883V18.5762ZM105.946 15.9697V19.7217H108.038V21.2656H105.946V25.0176H104.104V15.9697H105.946ZM105.946 25.7148V30.9775H104.104V27.1924H95.9521V25.7148H105.946ZM114.297 18.1279C114.28 20.1699 115.476 22.0293 117.833 22.7764L116.837 24.2207C115.202 23.6479 114.056 22.5605 113.417 21.1328C112.753 22.7681 111.5 24.0547 109.682 24.6855L108.702 23.1914C111.192 22.3779 112.438 20.3691 112.438 18.2109V16.7832H114.297V18.1279ZM121.369 15.9697V24.8018H119.526V20.3857H116.538V18.875H119.526V15.9697H121.369ZM116.289 25.2002C119.477 25.2002 121.419 26.2627 121.419 28.0889C121.419 29.915 119.477 30.9609 116.289 30.9609C113.118 30.9609 111.176 29.915 111.192 28.0889C111.176 26.2627 113.118 25.2002 116.289 25.2002ZM116.289 26.6279C114.197 26.6279 113.019 27.1426 113.019 28.0889C113.019 29.002 114.197 29.5166 116.289 29.5166C118.381 29.5166 119.576 29.002 119.576 28.0889C119.576 27.1426 118.381 26.6279 116.289 26.6279Z" fill="white"/>
</g>
<defs>
<filter id="filter0_bd_2518_16395" x="-36" y="-40" width="241" height="127" filterUnits="userSpaceOnUse" color-interpolation-filters="sRGB">
<feFlood flood-opacity="0" result="BackgroundImageFix"/>
<feGaussianBlur in="BackgroundImageFix" stdDeviation="20"/>
<feComposite in2="SourceAlpha" operator="in" result="effect1_backgroundBlur_2518_16395"/>
<feColorMatrix in="SourceAlpha" type="matrix" values="0 0 0 0 0 0 0 0 0 0 0 0 0 0 0 0 0 0 127 0" result="hardAlpha"/>
<feOffset dy="4"/>
<feGaussianBlur stdDeviation="2"/>
<feComposite in2="hardAlpha" operator="out"/>
<feColorMatrix type="matrix" values="0 0 0 0 0 0 0 0 0 0 0 0 0 0 0 0 0 0 0.15 0"/>
<feBlend mode="normal" in2="effect1_backgroundBlur_2518_16395" result="effect2_dropShadow_2518_16395"/>
<feBlend mode="normal" in="SourceGraphic" in2="effect2_dropShadow_2518_16395" result="shape"/>
</filter>
</defs>
</svg>
