<svg width="1024" height="1024" viewBox="0 0 1024 1024" fill="none" xmlns="http://www.w3.org/2000/svg">
<g clip-path="url(#clip0_1029_17753)">
<rect width="1024" height="1024" rx="512" fill="white"/>
<path d="M531.091 131.376C545.183 129.363 556.591 140.77 554.578 154.863C552.702 167.999 547.632 184.142 534.946 196.828C522.261 209.514 506.117 214.583 492.981 216.46C478.889 218.473 467.481 207.065 469.494 192.972C471.37 179.836 476.44 163.693 489.125 151.007C501.811 138.322 517.955 133.252 531.091 131.376Z" fill="#D9D9D9"/>
<path fill-rule="evenodd" clip-rule="evenodd" d="M654.026 482.502C662.595 491.071 677.02 488.856 681.169 477.47C688.177 458.242 692 437.483 692 415.831C692 316.42 611.411 235.831 512 235.831C412.589 235.831 332 316.42 332 415.831C332 515.243 412.589 595.831 512 595.831C536.243 595.831 559.367 591.039 580.475 582.349C591.433 577.838 593.321 563.761 584.942 555.381L546.974 517.414C542.328 512.768 535.541 511.157 529.07 512.295C523.527 513.269 517.823 513.777 512 513.777C457.906 513.777 414.054 469.925 414.054 415.831C414.054 361.737 457.906 317.886 512 317.886C566.094 317.886 609.946 361.737 609.946 415.831C609.946 419.484 609.746 423.09 609.356 426.639C608.691 432.697 610.407 438.883 614.717 443.192L654.026 482.502Z" fill="#D9D9D9"/>
<circle cx="512" cy="968.831" r="330" fill="#D9D9D9"/>
</g>
<defs>
<clipPath id="clip0_1029_17753">
<rect width="1024" height="1024" rx="512" fill="white"/>
</clipPath>
</defs>
</svg>
