<svg width="18" height="18" viewBox="0 0 18 18" fill="none" xmlns="http://www.w3.org/2000/svg">
<path fill-rule="evenodd" clip-rule="evenodd" d="M6.05015 15.257C5.7914 15.257 5.53265 15.1557 5.33015 14.9645C5.14122 14.7747 5.03516 14.5179 5.03516 14.2501C5.03516 13.9823 5.14122 13.7255 5.33015 13.5357L9.68389 9.18196L5.33014 4.83946C5.14122 4.64971 5.03516 4.39285 5.03516 4.12509C5.03516 3.85732 5.14122 3.60046 5.33014 3.41071C5.51989 3.22179 5.77676 3.11572 6.04452 3.11572C6.31228 3.11572 6.56914 3.22179 6.75889 3.41071L11.8214 8.47321C12.0103 8.66296 12.1164 8.91982 12.1164 9.18759C12.1164 9.45535 12.0103 9.71221 11.8214 9.90196L6.7589 14.9645C6.56765 15.1557 6.3089 15.257 6.05015 15.257Z" fill="#8B95A1"/>
</svg>
