<svg width="18" height="18" viewBox="0 0 18 18" fill="none" xmlns="http://www.w3.org/2000/svg">
<path fill-rule="evenodd" clip-rule="evenodd" d="M8.1777 16.1453C8.6772 16.4753 9.32144 16.4753 9.82019 16.1453C11.4064 15.0983 14.8602 12.5955 16.3482 9.79502C18.3094 6.10052 16.0062 2.41577 12.9612 2.41577C11.2257 2.41577 10.1817 3.32252 9.60419 4.10177C9.53483 4.19721 9.44387 4.27488 9.33874 4.32844C9.23361 4.38199 9.1173 4.40991 8.99932 4.40991C8.88134 4.40991 8.76503 4.38199 8.6599 4.32844C8.55477 4.27488 8.46381 4.19721 8.39444 4.10177C7.81694 3.32252 6.77294 2.41577 5.03744 2.41577C1.99244 2.41577 -0.310805 6.10052 1.65119 9.79502C3.13769 12.5955 6.59295 15.0983 8.1777 16.1453" fill="#343434"/>
</svg>
